<?xml version="1.0" encoding="UTF-8" standalone="no"?>
<svg
   id="Layer_1"
   data-name="Layer 1"
   width="42.01"
   height="42.01"
   viewBox="0 0 42.01 42.01"
   version="1.1"
   sodipodi:docname="instagram.svg"
   inkscape:version="1.2.2 (b0a8486, 2022-12-01)"
   xmlns:inkscape="http://www.inkscape.org/namespaces/inkscape"
   xmlns:sodipodi="http://sodipodi.sourceforge.net/DTD/sodipodi-0.dtd"
   xmlns="http://www.w3.org/2000/svg"
   xmlns:svg="http://www.w3.org/2000/svg">
  <sodipodi:namedview
     id="namedview40545"
     pagecolor="#ffffff"
     bordercolor="#000000"
     borderopacity="0.25"
     inkscape:showpageshadow="2"
     inkscape:pageopacity="0.0"
     inkscape:pagecheckerboard="0"
     inkscape:deskcolor="#d1d1d1"
     showgrid="false"
     inkscape:zoom="21.471079"
     inkscape:cx="3.1204766"
     inkscape:cy="21.051574"
     inkscape:window-width="1432"
     inkscape:window-height="780"
     inkscape:window-x="1903"
     inkscape:window-y="333"
     inkscape:window-maximized="0"
     inkscape:current-layer="Layer_1" />
  <defs
     id="defs40538">
    <style
       id="style40536">.cls-1{fill:#fff;}</style>
  </defs>
  <title
     id="title40540">instagram</title>
  <path
     class="cls-1"
     d="M37.25,35.49V17.77H33.56a11.77,11.77,0,0,1,.57,3.58,12.12,12.12,0,0,1-1.75,6.36,12.76,12.76,0,0,1-4.76,4.59A13.13,13.13,0,0,1,21.06,34a12.78,12.78,0,0,1-9.19-3.71,12,12,0,0,1-3.83-9,11.77,11.77,0,0,1,.49-3.56H4.68V35.49a1.63,1.63,0,0,0,1.6,1.67h29.3a1.63,1.63,0,0,0,1.17-.47A1.59,1.59,0,0,0,37.25,35.49ZM29.48,20.92A7.75,7.75,0,0,0,27,15.14a8.28,8.28,0,0,0-6-2.4,8.25,8.25,0,0,0-5.91,2.39,7.75,7.75,0,0,0-2.47,5.78,7.75,7.75,0,0,0,2.47,5.79A8.25,8.25,0,0,0,21,29.1a8.28,8.28,0,0,0,6-2.4A7.75,7.75,0,0,0,29.48,20.92Zm7.76-9.84V6.56a1.84,1.84,0,0,0-.54-1.31,1.8,1.8,0,0,0-1.31-.56H30.61a1.8,1.8,0,0,0-1.31.56,1.84,1.84,0,0,0-.54,1.31v4.52A1.87,1.87,0,0,0,30.6,13h4.8a1.87,1.87,0,0,0,1.85-1.89h0ZM42,5.39V36.62A5.41,5.41,0,0,1,36.62,42H5.39a5.19,5.19,0,0,1-3.8-1.59A5.19,5.19,0,0,1,0,36.62V5.39a5.19,5.19,0,0,1,1.59-3.8A5.19,5.19,0,0,1,5.39,0H36.62a5.19,5.19,0,0,1,3.8,1.59A5.19,5.19,0,0,1,42,5.39Z"
     id="path40542"
     style="fill:#ebd6d5;fill-opacity:1" />
</svg>
